<svg xmlns="http://www.w3.org/2000/svg" xmlns:xlink="http://www.w3.org/1999/xlink" xmlns:inkscape="http://www.inkscape.org/namespaces/inkscape" version="1.1" width="220" height="177" viewBox="0 0 220 177">
<defs>
<path id="font_1_5" d="M.33399964 .30233766C.33999635 .32835389 .36299134 .42037965 .43299867 .42037965 .43798829 .42037965 .46199037 .42037965 .48298646 .40734864 .45498658 .402359 .43499757 .37734986 .43499757 .35334779 .43499757 .33735658 .44599916 .31835938 .47299195 .31835938 .49499513 .31835938 .5269928 .3363495 .5269928 .37635804 .5269928 .42837525 .46798707 .4423828 .43399049 .4423828 .37599183 .4423828 .34098817 .38935853 .32899476 .36634828 .3039856 .43237306 .25 .4423828 .22099304 .4423828 .116989139 .4423828 .05999756 .3133545 .05999756 .28834535 .05999756 .27833558 .069992069 .27833558 .07199097 .27833558 .07998657 .27833558 .08299255 .28033448 .084991458 .28933717 .11898804 .39535523 .18499756 .42037965 .21899414 .42037965 .23799134 .42037965 .272995 .4113617 .272995 .35334779 .272995 .32235719 .2559967 .25532533 .21899414 .11528015 .20298767 .053268434 .16799927 .011245728 .12399292 .011245728 .117996219 .011245728 .09498596 .011245728 .07398987 .024276734 .09899902 .029266358 .12098694 .05027771 .12098694 .07827759 .12098694 .105270389 .09899902 .11328125 .083999637 .11328125 .053985597 .11328125 .0289917 .08728027 .0289917 .055267335 .0289917 .009246826 .07899475-.0107421879 .12298584-.0107421879 .18899536-.0107421879 .22499085 .059280397 .22799683 .0652771 .23999024 .028274537 .27598573-.0107421879 .33599855-.0107421879 .43899537-.0107421879 .49598695 .118270877 .49598695 .14328003 .49598695 .1532898 .4869995 .1532898 .48399354 .1532898 .47499085 .1532898 .47299195 .14929199 .47099305 .14228821 .43798829 .03527832 .36999513 .011245728 .33799745 .011245728 .29899598 .011245728 .2829895 .043273927 .2829895 .07727051 .2829895 .09927368 .2889862 .121276859 .2999878 .16529846L.33399964 .30233766Z"/>
<path id="font_1_6" d="M.48599244 .38136292C.48999024 .39537049 .48999024 .39736939 .48999024 .40437318 .48999024 .42237855 .47599793 .43138124 .46099855 .43138124 .45098878 .43138124 .43499757 .42536927 .42599488 .41036988 .42399598 .405365 .41600038 .37435914 .4119873 .35635377 .40499879 .33035279 .397995 .30334474 .3919983 .27633668L.34700013 .09628296C.34298707 .08126831 .2999878 .011245728 .23399353 .011245728 .18299866 .011245728 .17199707 .055267335 .17199707 .0922699 .17199707 .1382904 .18899536 .20030213 .22299195 .28833009 .23899842 .3293457 .24299622 .3403473 .24299622 .36035157 .24299622 .405365 .21099854 .4423828 .16099549 .4423828 .06599426 .4423828 .0289917 .29733277 .0289917 .28833009 .0289917 .27833558 .038986207 .27833558 .040985109 .27833558 .050994874 .27833558 .051986696 .28033448 .056991579 .29634095 .083999637 .3903656 .12399292 .42037965 .1579895 .42037965 .1659851 .42037965 .18299866 .42037965 .18299866 .3883667 .18299866 .36335755 .17298889 .3373413 .1659851 .31834413 .12599182 .21231079 .10798645 .1552887 .10798645 .10827637 .10798645 .019256592 .17098999-.0107421879 .22999573-.0107421879 .2689972-.0107421879 .30299378 .0062561037 .33099366 .03425598 .31799317-.017745972 .30599977-.06674194 .2659912-.11973572 .23999024-.15385437 .20199585-.18309021 .1559906-.18309021 .14199829-.18309021 .09700012-.18005371 .07998657-.14074707 .09599304-.14074707 .10899353-.14074707 .12298584-.1287384 .1329956-.11973572 .14299011-.10673523 .14299011-.08773804 .14299011-.056747438 .115997318-.052734376 .10598755-.052734376 .08299255-.052734376 .049987794-.068740848 .049987794-.11773682 .049987794-.16796875 .09399414-.20507813 .1559906-.20507813 .25898744-.20507813 .3619995-.11373901 .3899994-.00074768069L.48599244 .38136292Z"/>
<path id="font_1_1" d="M.37298585 .37835694C.35499574 .41537477 .32598878 .4423828 .2809906 .4423828 .1639862 .4423828 .039993287 .29533387 .039993287 .14929199 .039993287 .055267335 .09498596-.0107421879 .17298889-.0107421879 .19299317-.0107421879 .24299622-.0067443849 .30299378 .06427002 .31098939 .022247315 .34599305-.0107421879 .3939972-.0107421879 .42900086-.0107421879 .45199586 .012252808 .46798707 .044265748 .4850006 .08027649 .49798585 .14129639 .49798585 .14329529 .49798585 .1532898 .4889984 .1532898 .48599244 .1532898 .47599793 .1532898 .47499085 .14929199 .47200013 .13528443 .45498658 .07026672 .43699647 .011245728 .3959961 .011245728 .36898805 .011245728 .3659973 .037261964 .3659973 .057266237 .3659973 .07926941 .36799623 .08728027 .3789978 .13128662 .3899994 .17329407 .3919983 .18330384 .40098573 .22131348L.43699647 .36135865C.44400025 .38935853 .44400025 .39135743 .44400025 .39537049 .44400025 .41236878 .43199159 .42237855 .4149933 .42237855 .3909912 .42237855 .37599183 .4003601 .37298585 .37835694M.30799867 .119277957C.30299378 .10127258 .30299378 .09927368 .28799439 .08227539 .24398804 .027252198 .20298767 .011245728 .1749878 .011245728 .125 .011245728 .11099243 .06626892 .11099243 .105285648 .11099243 .1552887 .14299011 .27833558 .1659851 .32434083 .19699097 .38336183 .24198914 .42037965 .28199769 .42037965 .34700013 .42037965 .36099244 .3383484 .36099244 .33235169 .36099244 .32633973 .35899354 .32034303 .35798646 .31533814L.30799867 .119277957Z"/>
<path id="font_2_1" d="M.6589966 .23046875C.6759949 .23046875 .69400027 .23046875 .69400027 .25045777 .69400027 .27046205 .6759949 .27046205 .6589966 .27046205H.117996219C.100997928 .27046205 .08299255 .27046205 .08299255 .25045777 .08299255 .23046875 .100997928 .23046875 .117996219 .23046875H.6589966Z"/>
<path id="font_1_4" d="M.08799744 .059265138C.084991458 .044265748 .07899475 .021255494 .07899475 .01625061 .07899475-.0017547608 .09298706-.0107421879 .10798645-.0107421879 .11999512-.0107421879 .13798523-.002746582 .14498902 .01725769 .14698792 .021255494 .18099976 .15730286 .18499756 .17530823 .19299317 .20831299 .21099854 .27833558 .21699524 .30534364 .22099304 .31835938 .24899292 .36535646 .272995 .38734437 .2809906 .39434815 .30999757 .42037965 .35299684 .42037965 .3789978 .42037965 .3939972 .4083557 .394989 .4083557 .36499024 .40335084 .34298707 .37934876 .34298707 .35334779 .34298707 .33735658 .35398866 .31835938 .3809967 .31835938 .4079895 .31835938 .43598939 .34135438 .43598939 .37734986 .43598939 .41235353 .4039917 .4423828 .35299684 .4423828 .28799439 .4423828 .24398804 .39335633 .22499085 .36535646 .21699524 .4103546 .18099976 .4423828 .13398743 .4423828 .08799744 .4423828 .068984989 .40335084 .05999756 .38534547 .041992189 .35134889 .0289917 .29133607 .0289917 .28834535 .0289917 .27833558 .038986207 .27833558 .040985109 .27833558 .050994874 .27833558 .051986696 .27934266 .057998659 .30134584 .07499695 .37234498 .09498596 .42037965 .1309967 .42037965 .147995 .42037965 .1619873 .41235353 .1619873 .37435914 .1619873 .35334779 .15899658 .3423462 .1459961 .29034425L.08799744 .059265138Z"/>
<path id="font_3_3" d="M.40899659 .23046875H.6879883C.70199587 .23046875 .72099307 .23046875 .72099307 .25045777 .72099307 .27046205 .70199587 .27046205 .6879883 .27046205H.40899659V.5500183C.40899659 .56399539 .40899659 .5830078 .3889923 .5830078 .36898805 .5830078 .36898805 .56399539 .36898805 .5500183V.27046205H.08898926C.07499695 .27046205 .055999757 .27046205 .055999757 .25045777 .055999757 .23046875 .07499695 .23046875 .08898926 .23046875H.36898805V-.05000305C.36898805-.06401062 .36898805-.08300781 .3889923-.08300781 .40899659-.08300781 .40899659-.06401062 .40899659-.05000305V.23046875Z"/>
<path id="font_1_2" d="M.36698915 .3996582H.45298768C.47299195 .3996582 .48298646 .3996582 .48298646 .41966249 .48298646 .43066407 .47299195 .43066407 .45599366 .43066407H.37298585L.3939972 .5449524C.397995 .5660095 .4119873 .6370239 .41799928 .6490326 .4269867 .66804507 .44400025 .68307498 .46499635 .68307498 .46899415 .68307498 .49499513 .68307498 .5139923 .66503909 .46998597 .661026 .45999146 .6260376 .45999146 .6110382 .45999146 .58802798 .47799684 .57603457 .49699403 .57603457 .522995 .57603457 .5519867 .5980377 .5519867 .6360321 .5519867 .6820679 .5059967 .7050781 .46499635 .7050781 .43099977 .7050781 .36799623 .68707278 .33799745 .58802798 .33198548 .56700137 .32899476 .5569763 .30499269 .43066407H.23599243C.21699524 .43066407 .20599365 .43066407 .20599365 .4116516 .20599365 .3996582 .21499634 .3996582 .23399353 .3996582H.2999878L.22499085 .0048828127C.20698548-.09207153 .18998719-.18309021 .13798523-.18309021 .13398743-.18309021 .10899353-.18309021 .08999634-.16506958 .13598633-.1620636 .14498902-.12606812 .14498902-.111068729 .14498902-.08807373 .1269989-.07606506 .10798645-.07606506 .08198547-.07606506 .052993776-.09806824 .052993776-.13606262 .052993776-.18109131 .09700012-.20507813 .13798523-.20507813 .19299317-.20507813 .23298645-.14607239 .25099183-.108062747 .2829895-.04508972 .30599977 .07583618 .30699159 .082839969L.36698915 .3996582Z"/>
<path id="font_3_1" d="M.33099366-.2400055C.33099366-.23701477 .33099366-.23500061 .31399537-.21800232 .18899536-.0920105 .15699768 .09700012 .15699768 .25 .15699768 .42399598 .19499207 .59799197 .31799317 .72299197 .33099366 .73498538 .33099366 .7369995 .33099366 .73999026 .33099366 .746994 .32699586 .75 .32099916 .75 .31098939 .75 .22099304 .6819916 .1619873 .5549927 .11099243 .44499208 .09899902 .33399964 .09899902 .25 .09899902 .17199707 .10998535 .050994874 .16499329-.06201172 .22499085-.18501282 .31098939-.25 .32099916-.25 .32699586-.25 .33099366-.24700928 .33099366-.2400055Z"/>
<path id="font_3_2" d="M.2889862 .25C.2889862 .32798768 .27799989 .44898988 .22299195 .56199648 .16299439 .68499758 .07699585 .75 .066986087 .75 .06098938 .75 .056991579 .74598696 .056991579 .73999026 .056991579 .7369995 .056991579 .73498538 .07598877 .71699526 .17399597 .6179962 .23098755 .45899964 .23098755 .25 .23098755 .07899475 .19400025-.09700012 .069992069-.2230072 .056991579-.23500061 .056991579-.23701477 .056991579-.2400055 .056991579-.2460022 .06098938-.25 .066986087-.25 .07699585-.25 .16699219-.18200684 .22599793-.055007936 .2769928 .054992677 .2889862 .16600037 .2889862 .25Z"/>
<path id="font_1_3" d="M.45199586 .43138124C.45199586 .43537904 .44898988 .44137574 .44198609 .44137574 .43099977 .44137574 .3909912 .4013672 .37399293 .37236024 .35198976 .42637635 .31298829 .4423828 .2809906 .4423828 .16299439 .4423828 .039993287 .29434205 .039993287 .14929199 .039993287 .05126953 .09899902-.0107421879 .17199707-.0107421879 .21499634-.0107421879 .2539978 .013244629 .2899933 .04925537 .2809906 .014251709 .24798584-.1211853 .24499512-.1302185 .23699951-.1583252 .22898865-.16233826 .17298889-.16334534 .1599884-.16334534 .1499939-.16334534 .1499939-.18334961 .1499939-.18434143 .1499939-.19433594 .16299439-.19433594 .19499207-.19433594 .22999573-.19134522 .2630005-.19134522 .29699708-.19134522 .33299256-.19433594 .3659973-.19433594 .37098695-.19433594 .38398744-.19433594 .38398744-.17434693 .38398744-.16334534 .37399293-.16334534 .35798646-.16334534 .30999757-.16334534 .30999757-.15631104 .30999757-.14727783 .30999757-.14025879 .31199647-.13423157 .31399537-.12519837L.45199586 .43138124M.1749878 .011245728C.114990238 .011245728 .11099243 .088272098 .11099243 .105285648 .11099243 .1532898 .13999939 .2623291 .15699768 .30433656 .18798828 .37835694 .23999024 .42037965 .2809906 .42037965 .34599305 .42037965 .3600006 .33935548 .3600006 .33235169 .3600006 .32633973 .30499269 .107284549 .3019867 .103271488 .2869873 .07527161 .23098755 .011245728 .1749878 .011245728Z"/>
</defs>
<path transform="matrix(1.00002,0,0,-1.00003,40.001588,146.77)" stroke-width=".59776" stroke-linecap="butt" stroke-miterlimit="10" stroke-linejoin="miter" fill="none" stroke="#000000" d="M-28.3468 0H167.78946"/>
<path transform="matrix(1.00002,0,0,-1.00003,207.7944,146.77)" d="M2.29138 0-1.37483 1.83311 0 0-1.37483-1.83311"/>
<use data-text="x" xlink:href="#font_1_5" transform="matrix(9.962799,0,0,-9.962899,213.70507,148.91507)"/>
<path transform="matrix(1.00002,0,0,-1.00003,40.001588,146.77)" stroke-width=".59776" stroke-linecap="butt" stroke-miterlimit="10" stroke-linejoin="miter" fill="none" stroke="#000000" d="M0-28.3468V139.44264"/>
<path transform="matrix(0,-1.00003,-1.00002,-0,40.001588,7.323166)" d="M2.29138 0-1.37483 1.83311 0 0-1.37483-1.83311"/>
<use data-text="y" xlink:href="#font_1_6" transform="matrix(9.962799,0,0,-9.962899,31.140412,6.207779)"/>
<use data-text="a" xlink:href="#font_1_1" transform="matrix(9.962799,0,0,-9.962899,92.675647,156.10129)"/>
<use data-text="&#x2212;" xlink:href="#font_2_1" transform="matrix(9.962799,0,0,-9.962899,100.15579,156.10129)"/>
<use data-text="r" xlink:href="#font_1_4" transform="matrix(9.962799,0,0,-9.962899,110.118,156.10129)"/>
<use data-text="a" xlink:href="#font_1_1" transform="matrix(9.962799,0,0,-9.962899,122.41023,154.57924)"/>
<use data-text="a" xlink:href="#font_1_1" transform="matrix(9.962799,0,0,-9.962899,135.1965,156.10129)"/>
<use data-text="+" xlink:href="#font_3_3" transform="matrix(9.962799,0,0,-9.962899,142.67664,156.10129)"/>
<use data-text="r" xlink:href="#font_1_4" transform="matrix(9.962799,0,0,-9.962899,152.63886,156.10129)"/>
<use data-text="f" xlink:href="#font_1_2" transform="matrix(9.962799,0,0,-9.962899,.5348053,115.24406)"/>
<use data-text="(" xlink:href="#font_3_1" transform="matrix(9.962799,0,0,-9.962899,6.4849245,115.24406)"/>
<use data-text="a" xlink:href="#font_1_1" transform="matrix(9.962799,0,0,-9.962899,10.358994,115.24406)"/>
<use data-text=")" xlink:href="#font_3_2" transform="matrix(9.962799,0,0,-9.962899,15.625107,115.24406)"/>
<use data-text="&#x2212;" xlink:href="#font_2_1" transform="matrix(9.962799,0,0,-9.962899,21.713227,115.24406)"/>
<use data-text="q" xlink:href="#font_1_3" transform="matrix(9.962799,0,0,-9.962899,31.676423,115.24406)"/>
<use data-text="f" xlink:href="#font_1_2" transform="matrix(9.962799,0,0,-9.962899,.5348053,77.68293)"/>
<use data-text="(" xlink:href="#font_3_1" transform="matrix(9.962799,0,0,-9.962899,6.4849245,77.68293)"/>
<use data-text="a" xlink:href="#font_1_1" transform="matrix(9.962799,0,0,-9.962899,10.358994,77.68293)"/>
<use data-text=")" xlink:href="#font_3_2" transform="matrix(9.962799,0,0,-9.962899,15.625107,77.68293)"/>
<use data-text="+" xlink:href="#font_3_3" transform="matrix(9.962799,0,0,-9.962899,21.702424,77.68293)"/>
<use data-text="q" xlink:href="#font_1_3" transform="matrix(9.962799,0,0,-9.962899,31.676423,77.68293)"/>
<use data-text="f" xlink:href="#font_1_2" transform="matrix(9.962799,0,0,-9.962899,17.516137,98.23454)"/>
<use data-text="(" xlink:href="#font_3_1" transform="matrix(9.962799,0,0,-9.962899,23.466256,98.23454)"/>
<use data-text="a" xlink:href="#font_1_1" transform="matrix(9.962799,0,0,-9.962899,27.340325,98.23454)"/>
<use data-text=")" xlink:href="#font_3_2" transform="matrix(9.962799,0,0,-9.962899,32.606439,98.23454)"/>
<path transform="matrix(1.00002,0,0,-1.00003,40.001588,146.77)" d="M0 34.01608V71.57552H170.08086V35.43349" fill="#d9d9d9"/>
<path transform="matrix(1.00002,0,0,-1.00003,40.001588,146.77)" d="M63.7803 38.78394C63.7803 38.78394 65.06035 39.45186 65.55199 39.7113 66.04362 39.97073 66.83203 40.38951 67.32365 40.6538 67.81529 40.91808 68.60371 41.3474 69.09534 41.6162 69.58698 41.885 70.3754 42.31783 70.867 42.59113 71.35863 42.86443 72.14705 43.30759 72.63867 43.58598 73.13031 43.86438 73.91873 44.31448 74.41037 44.59769 74.902 44.88089 75.6904 45.33911 76.18204 45.62712 76.67366 45.91512 77.46208 46.38033 77.95372 46.67343 78.44534 46.96652 79.23375 47.4412 79.72539 47.73962 80.21701 48.03807 81.00543 48.52103 81.49707 48.82445 81.9887 49.12787 82.7771 49.61801 83.26874 49.92654 83.76038 50.23506 84.54878 50.73376 85.04042 51.04811 85.53206 51.36246 86.32048 51.87201 86.81209 52.19218 87.30371 52.51236 88.09213 53.03052 88.58376 53.35571 89.0754 53.68091 89.86382 54.20555 90.35544 54.5361 90.84708 54.86665 91.63548 55.40128 92.1271 55.73813 92.61874 56.07497 93.40717 56.6209 93.8988 56.96393 94.39043 57.30696 95.17883 57.86183 95.67047 58.21051 96.1621 58.55919 96.95052 59.12225 97.44215 59.47699 97.93378 59.83173 98.7222 60.40602 99.21382 60.76724 99.70543 61.12845 100.49385 61.71321 100.98549 62.08043 101.47713 62.44765 102.26553 63.04031 102.75717 63.41396 103.24881 63.78758 104.03722 64.39294 104.52884 64.77342 105.02048 65.1539 106.30052 66.15623 106.30052 66.15623V0H63.7803V38.7783Z" fill="#bfbfbf"/>
<path transform="matrix(1.00002,0,0,-1.00003,40.001588,146.77)" stroke-width=".3985" stroke-linecap="butt" stroke-miterlimit="10" stroke-linejoin="miter" fill="none" stroke="#000000" d="M-14.17339 10.50244C-14.17339 10.50244-8.62663 11.87564-6.49626 12.4307-4.3659 12.98575-.94954 13.90459 1.1808 14.50299 3.31117 15.10138 6.72757 16.09755 8.85793 16.74353 10.98828 17.38951 14.4047 18.46237 16.53505 19.15881 18.6654 19.85527 22.0818 21.01218 24.21217 21.76312 26.34253 22.51408 29.75891 23.7616 31.88927 24.57118 34.01964 25.38075 37.43604 26.72542 39.56639 27.59807 41.69675 28.47073 45.11316 29.91965 47.24352 30.8607 49.37387 31.80177 52.79028 33.36612 54.92064 34.38069 57.051 35.39528 60.46738 37.0795 62.59775 38.17319 64.7281 39.26689 68.1445 41.08401 70.27486 42.26328 72.40523 43.44254 75.82162 45.40123 77.95198 46.67256 80.08234 47.94388 83.49875 50.05527 85.6291 51.42616 87.75946 52.79704 91.17584 55.07513 93.30621 56.55302 95.43657 58.03091 98.85297 60.48447 100.98332 62.07784 103.1137 63.6712 106.53009 66.31909 108.66045 68.03691 110.79082 69.75475 114.20721 72.60703 116.33757 74.45882 118.46793 76.3106 121.88432 79.3863 124.01468 81.38332 126.14503 83.38033 129.56143 86.69919 131.6918 88.85194 133.82216 91.00468 137.23856 94.57832 139.36891 96.89888 141.49929 99.21942 144.91568 103.0745 147.04604 105.57687 149.17639 108.07927 152.59279 112.2365 154.72315 114.93442 156.8535 117.63232 160.26992 122.11331 162.40027 125.02162 164.53063 127.92995 170.0774 135.89563 170.0774 135.89563"/>
<path transform="matrix(1.00002,0,0,-1.00003,40.001588,146.77)" stroke-width=".3985" stroke-linecap="butt" stroke-miterlimit="10" stroke-linejoin="miter" fill="none" stroke="#000000" d="M85.04042 51.02432V0"/>
<path transform="matrix(1.00002,0,0,-1.00003,40.001588,146.77)" stroke-width=".3985" stroke-linecap="butt" stroke-miterlimit="10" stroke-linejoin="miter" fill="none" stroke="#000000" d="M0 51.02432H85.04042"/>
</svg>
